<?xml version="1.0" encoding="UTF-8" standalone="no"?>
<!-- Created with Inkscape (http://www.inkscape.org/) -->
<svg xmlns:dc="http://purl.org/dc/elements/1.1/" xmlns:cc="http://creativecommons.org/ns#" xmlns:rdf="http://www.w3.org/1999/02/22-rdf-syntax-ns#" xmlns:svg="http://www.w3.org/2000/svg" xmlns="http://www.w3.org/2000/svg" xmlns:sodipodi="http://sodipodi.sourceforge.net/DTD/sodipodi-0.dtd" xmlns:inkscape="http://www.inkscape.org/namespaces/inkscape" viewBox="0 0 307.05535 312.63008" id="svg2" version="1.1" inkscape:version="0.91 r" sodipodi:docname="ballot-woman.svg" inkscape:export-filename="/home/algot/Documents/runeman.org/clipart/ballot-woman.png" inkscape:export-xdpi="43.966015" inkscape:export-ydpi="43.966015">
  <title id="title3412">Ballot Woman</title>
  <defs id="defs4"/>
  <sodipodi:namedview id="base" pagecolor="#ffffff" bordercolor="#666666" borderopacity="1.0" inkscape:pageopacity="0.0" inkscape:pageshadow="2" inkscape:zoom="1" inkscape:cx="-6.9446481" inkscape:cy="222.16245" inkscape:document-units="px" inkscape:current-layer="layer1" showgrid="false" fit-margin-top="0" fit-margin-left="0" fit-margin-right="0" fit-margin-bottom="0" inkscape:window-width="1366" inkscape:window-height="713" inkscape:window-x="-2" inkscape:window-y="-3" inkscape:window-maximized="1">
    <inkscape:grid type="xygrid" id="grid3351" originx="-226.94464" originy="-586.00003"/>
  </sodipodi:namedview>
  <metadata id="metadata7">
    <rdf:RDF>
      <cc:Work rdf:about="">
        <dc:format>image/svg+xml</dc:format>
        <dc:type rdf:resource="http://purl.org/dc/dcmitype/StillImage"/>
        <dc:title>Ballot Woman</dc:title>
        <dc:date>2015-02-04</dc:date>
        <dc:creator>
          <cc:Agent>
            <dc:title>Algot Runeman</dc:title>
          </cc:Agent>
        </dc:creator>
        <dc:rights>
          <cc:Agent>
            <dc:title>Algot Runeman</dc:title>
          </cc:Agent>
        </dc:rights>
        <dc:publisher>
          <cc:Agent>
            <dc:title>runeman.org</dc:title>
          </cc:Agent>
        </dc:publisher>
        <dc:identifier>ballot-woman.svg</dc:identifier>
        <cc:license rdf:resource="http://creativecommons.org/publicdomain/zero/1.0/"/>
        <dc:description>Offset male bias of original</dc:description>
      </cc:Work>
      <cc:License rdf:about="http://creativecommons.org/publicdomain/zero/1.0/">
        <cc:permits rdf:resource="http://creativecommons.org/ns#Reproduction"/>
        <cc:permits rdf:resource="http://creativecommons.org/ns#Distribution"/>
        <cc:permits rdf:resource="http://creativecommons.org/ns#DerivativeWorks"/>
      </cc:License>
    </rdf:RDF>
  </metadata>
  <g inkscape:label="Layer 1" inkscape:groupmode="layer" id="layer1" transform="translate(-226.94465,-153.73211)">
    <g id="g3401">
      <path inkscape:connector-curvature="0" id="path3370" d="m 250,382.3622 0,80 280,0 0,-80 z" style="fill:#000080;fill-rule:evenodd;stroke:#ffffff;stroke-width:8;stroke-linecap:butt;stroke-linejoin:miter;stroke-opacity:1"/>
      <path inkscape:connector-curvature="0" id="path3353" d="m 313,420.3622 -3,-118 160,0 0,120 z" style="fill:#000080;fill-rule:evenodd;stroke:#ffffff;stroke-width:4;stroke-linecap:butt;stroke-linejoin:miter;stroke-opacity:1"/>
      <path inkscape:connector-curvature="0" id="path3355" d="m 324,368.3622 10,10 20,-40" style="fill:none;fill-rule:evenodd;stroke:#ffffff;stroke-width:6;stroke-linecap:butt;stroke-linejoin:miter;stroke-opacity:1"/>
      <path inkscape:connector-curvature="0" id="path3357" d="m 370,342.3622 70,0" style="fill:none;fill-rule:evenodd;stroke:#ffffff;stroke-width:6;stroke-linecap:butt;stroke-linejoin:miter;stroke-opacity:1"/>
      <path style="fill:none;fill-rule:evenodd;stroke:#ffffff;stroke-width:6;stroke-linecap:butt;stroke-linejoin:miter;stroke-opacity:1" d="m 370,362.3622 70,0" id="path3359" inkscape:connector-curvature="0"/>
      <path inkscape:connector-curvature="0" id="path3361" d="m 370,382.3622 70,0" style="fill:none;fill-rule:evenodd;stroke:#ffffff;stroke-width:6;stroke-linecap:butt;stroke-linejoin:miter;stroke-opacity:1"/>
      <path sodipodi:nodetypes="cccccsccsccccc" inkscape:connector-curvature="0" id="path3347" d="m 312,187.3622 97,50 37,65 -31,0 -22,-32 c 0,0 -17.36768,1.05124 -21,4 -3.76807,3.05896 4,20 4,20 l 31,32 c 0,0 6.54338,15.45662 3,19 -3.54338,3.54338 -19,-3 -19,-3 -29.33333,-23.86983 -40.66667,-40.41218 -68,-57 l -26,-34 -11,-3 z" style="fill:#000080;fill-rule:evenodd;stroke:#ffffff;stroke-width:4;stroke-linecap:butt;stroke-linejoin:miter;stroke-opacity:1"/>
      <path sodipodi:nodetypes="ccccc" inkscape:connector-curvature="0" id="path3349" d="m 235,222.3622 22,-63 56,26 -25,62 z" style="fill:#000080;fill-rule:evenodd;stroke:#ffffff;stroke-width:8;stroke-linecap:butt;stroke-linejoin:miter;stroke-opacity:1"/>
      <path inkscape:connector-curvature="0" id="path3372" d="m 290,422.3622 200,0" style="fill:none;fill-rule:evenodd;stroke:#ffffff;stroke-width:10;stroke-linecap:butt;stroke-linejoin:miter;stroke-opacity:1"/>
    </g>
    <path style="opacity:1;fill:#000080;fill-opacity:1;stroke:none;stroke-width:4;stroke-linecap:round;stroke-linejoin:round;stroke-miterlimit:4;stroke-dasharray:none;stroke-dashoffset:0;stroke-opacity:1" d="m 279.44465,251.36296 a 10.5,11 0 0 0 -10.5,11 10.5,11 0 0 0 10.5,11 10.5,11 0 0 0 10.5,-11 10.5,11 0 0 0 -10.5,-11 z m 1.39453,1.29371 1.88672,5.13767 5.22152,1.32855 -4.21094,3.41659 0.37484,5.47213 -4.48893,-3.02639 -4.99024,2.05437 1.43669,-5.28632 -3.45899,-4.20281 5.37647,-0.24155 2.85286,-4.65224 z" id="ellipse4239" inkscape:connector-curvature="0"/>
    <path style="opacity:1;fill:#000080;fill-opacity:1;stroke:none;stroke-width:0.25;stroke-linecap:round;stroke-linejoin:round;stroke-miterlimit:4;stroke-dasharray:none;stroke-dashoffset:0;stroke-opacity:1" d="m 280.44465,219.36296 c -4.155,0 -7.5,3.21812 -7.5,7.21552 l 0,16.56897 c 0,3.99739 3.345,7.21551 7.5,7.21551 4.155,0 7.5,-3.21812 7.5,-7.21551 l 0,-16.56897 c 0,-3.9974 -3.345,-7.21552 -7.5,-7.21552 z m 1.11111,4.27587 c 2.30833,0 4.16667,2.38541 4.16667,5.349 l 0,12.28371 c 0,2.96358 -1.85834,5.35004 -4.16667,5.35004 -2.30833,0 -4.16667,-2.38646 -4.16667,-5.35004 l 0,-12.28371 c 0,-2.96359 1.85834,-5.349 4.16667,-5.349 z" id="rect4244" inkscape:connector-curvature="0"/>
  </g>
</svg>
